<?xml version="1.0" encoding="UTF-8"?>
<!-- Created with Inkscape (http://www.inkscape.org/) -->
<svg version="1.1" viewBox="0 0 4.6063 4.5705" xmlns="http://www.w3.org/2000/svg">
 <g transform="translate(-63.909 -105.26)">
  <path fill="#15a3d2" d="m67.349 107.77c-0.32935 0.10335-0.66834 0.0207-0.66834-0.42031 1e-3 -0.6711 1.5765-1.2333 1.7956-1.819 0.0537-0.14607 0.0565-0.26734-0.0124-0.2632-0.051 3e-3 -0.011 0.0758-0.12127 0.18603-0.65319 0.65319-1.746 0.65182-2.5852 1.028-0.55122 0.24805-2.1635 1.006-1.7928 2.6982 0.0179 0.0813 0.0661 0.35002 0.11438 0.35002 0.0579 0 0.0579-0.15985 0.0565-0.35416-0.0138-1.0073 1.181-1.2885 1.5696-1.9472 0.0455-0.0786 0.12678-0.1888 0.1447-0.13781 0.01 0.0248 4e-3 0.0606-0.0124 0.13092-0.12127 0.54157-0.68764 0.88883-0.52641 1.2761 0.20808 0.5016 0.80753 0.12816 0.99219-0.19568 0.0496-0.0882 0.0772-0.1447 0.11024-0.13367 0.0248 8e-3 0.0234 0.11024 8e-3 0.20257-0.0992 0.58153-0.23289 0.90951-0.6587 1.2402-0.13643 0.1061-0.35141 0.12815-0.32247 0.20946 7e-3 0.0221 0.0992 0.0193 0.17364 0.0124 1.1341-0.073 2.0836-1.4111 2.3344-2.2862 0.0262-0.0606 0.0344-0.11851 7e-3 -0.14055-0.0345-0.0262-0.0841 0.0344-0.13504 0.0799-0.12954 0.113-0.30731 0.23289-0.47129 0.28388"/>
 </g>
</svg>
